<?xml version="1.0" encoding="utf-8"?>
<!-- Generator: Adobe Illustrator 26.5.2, SVG Export Plug-In . SVG Version: 6.00 Build 0)  -->
<svg version="1.1" id="Lag_1" xmlns="http://www.w3.org/2000/svg" xmlns:xlink="http://www.w3.org/1999/xlink" x="0px" y="0px"
	 viewBox="0 0 348.7 117.6" style="enable-background:new 0 0 348.7 117.6;" xml:space="preserve">
<style type="text/css">
	.st0{fill:#E1BB19;}
</style>
<g>
	<g>
		<g>
			<rect x="28" y="79.7" class="st0" width="102.8" height="1"/>
		</g>
		<path class="st0" d="M28.3,81.3C28.2,81.3,28.2,81.3,28.3,81.3c-0.6,0.5-1.1,1-1.2,1.2s-0.2,0.9-0.4,1.5c-0.1,0.7-0.3,1.3-0.2,1.4
			c0.1,0.1,0.7-0.2,1.4-0.5c0.5-0.3,1-0.7,1.3-0.9v0.1c-0.1,0.4-0.1,1.4,0.4,2.4c0.3,0.5,0.7,1,1.2,1.3c0.5,0.4,1.1,0.6,1.7,0.6
			c1.2,0.1,2.2-0.4,2.7-1c0.5-0.5,0.6-1,0.6-1c-0.1,0-0.4,0.3-0.9,0.5c-0.6,0.2-1.4,0.3-2,0c-0.7-0.3-1-0.8-1.1-1.3s0-0.9,0-1.1
			c0-0.1,0-0.2,0.1-0.4c0-0.1,0.1-0.3,0.3-0.5c0.2-0.2,0.4-0.5,0.7-0.7c0.3-0.2,0.7-0.5,1-0.8c0.7-0.5,1.4-0.9,2-1.1s1-0.4,1-0.6
			c0-0.1-0.1-0.2-0.2-0.2c0.1-0.1,0.2-0.1,0.2-0.2c0-0.2-0.4-0.3-1-0.6s-1.3-0.6-2-1.1c-0.3-0.2-0.7-0.5-1-0.8
			c-0.3-0.2-0.6-0.5-0.7-0.7c-0.2-0.2-0.2-0.4-0.3-0.5c-0.1-0.2-0.1-0.3-0.1-0.4c0-0.2-0.1-0.5,0-1.1c0.1-0.5,0.4-1.1,1.1-1.3
			c0.6-0.3,1.5-0.2,2,0c0.6,0.2,0.9,0.5,0.9,0.5s-0.1-0.5-0.6-1s-1.5-1-2.7-1c-0.6,0-1.2,0.2-1.7,0.6c-0.5,0.4-0.9,0.8-1.2,1.3
			c-0.5,1-0.5,1.9-0.4,2.4v0.1c-0.2-0.2-0.7-0.5-1.2-0.8c-0.6-0.3-1.1-0.7-1.2-0.6s-0.1,0.7,0,1.4s0.2,1.4,0.3,1.6
			c0.1,0.2,0.5,0.5,1,0.9c-1.8,0.2-5,0.7-5,0.9C23.1,80,26.5,80.9,28.3,81.3z M31.1,79c-0.4-0.1-0.8-0.1-1.2-0.2
			c0-0.3-0.1-0.7-0.2-1.1c0.2,0.3,0.4,0.5,0.7,0.8C30.6,78.7,30.8,78.9,31.1,79z M29.7,82.8c0-0.2,0.1-0.3,0.1-0.5
			c0.1-0.3,0.1-0.6,0.1-0.8c0.4,0,0.9,0,1.4-0.1c-0.3,0.2-0.6,0.4-0.9,0.7C30.1,82.2,29.9,82.5,29.7,82.8z"/>
	</g>
	<g>
		<g>
			<rect x="218" y="79.7" class="st0" width="102.8" height="1"/>
		</g>
		<path class="st0" d="M325.7,79.8c0-0.2-3.1-0.7-5-0.9c0.5-0.3,0.9-0.7,1-0.9s0.3-0.9,0.4-1.6c0.1-0.7,0.1-1.3,0-1.4
			c-0.1-0.1-0.7,0.3-1.2,0.6s-1,0.6-1.2,0.8v-0.1c0.1-0.4,0.1-1.4-0.5-2.4c-0.3-0.5-0.6-1-1.2-1.3c-0.5-0.4-1.1-0.6-1.7-0.6
			c-1.2-0.1-2.1,0.4-2.7,1c-0.5,0.5-0.6,1-0.6,1c0.1,0,0.4-0.3,0.9-0.5s1.4-0.3,2,0c0.7,0.3,1,0.8,1.1,1.3s0,0.9,0,1.1
			c0,0.1,0,0.2-0.1,0.4c0,0.1-0.1,0.3-0.3,0.5c-0.2,0.2-0.4,0.5-0.7,0.7c-0.3,0.2-0.7,0.5-1,0.8c-0.7,0.5-1.4,0.9-2,1.1
			s-1,0.4-1,0.6c0,0.1,0.1,0.2,0.2,0.2c-0.1,0.1-0.2,0.1-0.2,0.2c0,0.2,0.4,0.3,1,0.6s1.3,0.6,2,1.1c0.4,0.2,0.7,0.5,1,0.8
			c0.3,0.2,0.6,0.5,0.7,0.7c0.2,0.2,0.2,0.4,0.3,0.5c0,0.2,0.1,0.3,0.1,0.4c0,0.2,0.1,0.5,0,1.1c-0.1,0.5-0.4,1.1-1.1,1.3
			c-0.6,0.3-1.5,0.2-2,0c-0.6-0.2-0.9-0.5-0.9-0.5s0,0.5,0.6,1c0.5,0.5,1.5,1,2.7,1c0.6,0,1.2-0.2,1.7-0.6c0.5-0.4,0.9-0.8,1.2-1.3
			c0.5-1,0.5-1.9,0.5-2.4V84c0.2,0.2,0.8,0.6,1.3,0.9c0.6,0.4,1.3,0.6,1.4,0.5s0-0.7-0.2-1.4c-0.1-0.7-0.3-1.4-0.4-1.5
			c-0.1-0.2-0.6-0.7-1.1-1.1l-0.1-0.1C322.2,80.9,325.7,80,325.7,79.8z M318.4,78.5c0.2-0.2,0.5-0.5,0.6-0.8
			c-0.1,0.4-0.2,0.8-0.2,1.1c-0.3,0-0.7,0.1-1.1,0.2C317.9,78.9,318.2,78.7,318.4,78.5z M318.4,82c-0.3-0.3-0.6-0.5-0.9-0.7
			c0.5,0,1,0.1,1.4,0.1c0,0.3,0,0.5,0.1,0.8c0,0.2,0.1,0.3,0.1,0.5C318.9,82.5,318.6,82.2,318.4,82z"/>
	</g>
	<g>
		<g>
			<path class="st0" d="M172.6,34.1c0,2.8,2.5,25.5,3,25.5s3-22.7,3-25.5s-1.4-7.7-3-7.7C174,26.5,172.6,31.3,172.6,34.1z"/>
		</g>
		<g>
			<g>
				<path class="st0" d="M126.5,62c-0.4,0.9-1.1,2.4-1.3,4.4s0,4.5,1.2,7c1.2,2.4,3.4,4.7,6.4,5.5c1.5,0.4,3.1,0.5,4.6,0.2
					s2.9-1.1,4-2.2c1.1-1.1,1.9-2.5,2.2-4s0.1-3-0.4-4.3c-0.6-1.3-1.5-2.5-2.6-3.3s-2.3-1.3-3.5-1.4c-1.2-0.1-2.3,0.1-3.1,0.5
					c-0.9,0.4-1.5,1-1.9,1.6c-0.8,1.2-0.7,2-0.8,2c0,0-0.1-0.2,0-0.6c0-0.4,0.1-1,0.5-1.6c0.4-0.7,1-1.4,1.9-1.9s2.1-0.9,3.5-0.8
					c2.7,0,5.8,1.8,7.4,4.9c0.8,1.5,1.2,3.5,0.9,5.3c-0.3,1.9-1.1,3.7-2.4,5.2c-1.3,1.5-3.1,2.7-5,3.2s-4,0.5-5.9,0.1
					s-3.7-1.3-5.2-2.5s-2.6-2.7-3.4-4.2c-1.7-3-2.1-6.3-1.9-8.9c0.2-2.6,0.9-4.5,1.5-5.7s1.6-3,3.4-4.8c1.8-1.8,4.4-3.6,7.5-4.8
					s6.7-1.9,10.4-1.8c3.7,0.1,7.5,0.9,10.9,2.4s6.4,3.5,8.9,5.7c2.5,2.2,4.4,4.6,5.8,6.8c1.4,2.1,2.3,4,2.9,5.4
					c0.6,1.3,0.8,2.2,0.6,2.2c-0.3,0.1-1.7-2.8-4.7-6.7c-1.5-1.9-3.5-4-5.9-6c-2.4-1.9-5.3-3.7-8.5-4.8c-3.2-1.2-6.6-1.8-9.9-1.7
					c-3.3,0.1-6.4,0.7-9.1,1.9c-2.6,1.1-4.7,2.6-6.2,4.1C127.7,59.7,126.9,61.1,126.5,62z"/>
			</g>
			<g>
				<path class="st0" d="M133,48.4c-0.3-0.3-0.7-0.8-1.1-1.5c-0.4-0.7-0.8-1.6-0.9-2.7c-0.1-1.1,0-2.4,0.6-3.5s1.4-2,2.4-2.6
					s2.1-0.8,3.1-0.8s1.9,0.3,2.5,0.6c1.3,0.7,1.8,1.5,1.8,1.5c-0.1,0.1-0.8-0.5-2.1-0.7c-1.2-0.2-3,0-4.1,1.1
					c-0.6,0.5-0.9,1.2-1.1,1.8c-0.2,0.7-0.1,1.2,0.1,1.8c0.4,1.1,1.1,1.8,1.4,2.1c0.3,0.3,1,1,2.3,1.6s3.1,1,4.9,1.3
					c1.9,0.3,3.8,0.6,5.1,1.1c1.4,0.5,2.1,1.1,2,1.3c-0.1,0.3-1,0.2-2.3,0.1c-1.3,0-3.1,0.1-5,0.1s-4.1-0.1-6-0.7
					c-0.9-0.3-1.8-0.7-2.4-1.1C133.8,49.1,133.3,48.6,133,48.4z"/>
			</g>
			<g>
				<path class="st0" d="M149.5,57.5c-0.4,0.2-1.3,0.6-2.2,1.5c-0.4,0.5-0.7,0.9-0.8,1.5s0,1.3,0.3,2s0.8,1.2,1.4,1.6
					c0.6,0.4,1.3,0.6,1.9,0.7c1.2,0.2,2.1,0.1,2.1,0.2c0,0.1-0.7,0.5-2.1,0.7c-0.7,0.1-1.6,0-2.5-0.2c-0.9-0.3-1.9-0.9-2.6-1.8
					c-0.7-0.9-1.2-2-1.3-3.3c0-0.6,0.1-1.3,0.2-1.8c0.2-0.6,0.4-1.1,0.7-1.5c1.1-1.7,2.5-2.6,3.1-3c0.6-0.3,2.2-0.9,4-1
					c0.9-0.1,2,0,3,0.2s2,0.5,2.9,0.9c1.9,0.8,3.4,1.9,4.4,2.7s1.6,1.6,1.5,1.8s-1,0-2.2-0.5s-2.8-1.1-4.5-1.4
					c-1.7-0.4-3.4-0.4-4.7-0.2C150.8,56.8,149.9,57.3,149.5,57.5z"/>
			</g>
			<g>
				<path class="st0" d="M163.4,70.6c-0.4-0.1-1.1-0.5-2-0.8c-1-0.3-2.2-0.6-3.4-0.7c-1.2-0.1-2.4,0-3.3,0.1
					c-0.9,0.1-1.5,0.3-1.6,0.2c0-0.1,0.4-0.5,1.2-1s2.1-1.1,3.4-1.5c1.4-0.4,2.9-0.5,4.2-0.5s2.3,0.3,2.8,0.5
					c0.5,0.2,1.4,0.6,2.5,1.3c1.1,0.7,2.2,1.8,3.1,2.9s1.5,2.4,1.8,3.3s0.3,1.6,0.1,1.7c-0.2,0.1-0.7-0.3-1.4-1
					c-0.6-0.6-1.5-1.5-2.5-2.2s-2-1.3-2.9-1.8C164.5,71,163.8,70.8,163.4,70.6z"/>
			</g>
			<g>
				<path class="st0" d="M95.9,75.4c-0.5-0.6-1.2-1.7-1.7-3.2s-0.8-3.3-0.4-5.3c0.3-2,1.3-4.1,2.9-5.7c1.6-1.6,3.9-2.7,6.2-2.6
					c2.3,0,4.5,1.1,5.7,2.8c1.2,1.6,1.5,3.7,1,5.1c-0.5,1.5-1.6,2.3-2.3,2.7c-0.8,0.4-1.3,0.3-1.3,0.3c0-0.1,0.4-0.2,1.1-0.6
					c0.6-0.4,1.4-1.3,1.6-2.6c0.2-1.2-0.2-2.8-1.3-3.9c-1.1-1.1-2.8-1.7-4.5-1.5c-1.7,0.1-3.2,1-4.2,2.3c-1.1,1.3-1.6,2.8-1.7,4.2
					c-0.1,1.4,0.2,2.7,0.6,3.7c0.4,1,0.9,1.6,1.2,2s0.9,1,1.7,1.6c0.9,0.6,2.1,1.1,3.4,1.3c1.4,0.2,3-0.1,4.6-0.7
					c1.6-0.7,3.2-1.7,4.6-2.9c2.8-2.5,5.1-5.5,7-7.7c1.8-2.2,3.1-3.5,3.3-3.3s-0.6,1.8-2.1,4.2s-3.4,5.7-6.3,8.8
					c-1.4,1.5-3.2,2.9-5.1,3.8s-4.2,1.5-6.2,1.4c-2.1-0.2-3.8-0.9-5.1-1.7C97.2,77,96.4,76.1,95.9,75.4z"/>
			</g>
			<g>
				<path class="st0" d="M81.3,70.8c-0.5,0.2-1.6,0.6-2.5,1.7c-0.4,0.5-0.7,1.2-0.8,2s0.1,1.7,0.6,2.4c0.4,0.7,1.1,1.3,1.9,1.5
					c0.8,0.3,1.6,0.3,2.3,0.1c1.4-0.3,2.1-1.1,2.2-1c0,0-0.1,0.3-0.3,0.7s-0.8,0.9-1.5,1.2c-0.8,0.4-1.8,0.7-2.9,0.5
					c-1.1-0.1-2.4-0.7-3.3-1.7c-0.9-1-1.5-2.3-1.7-3.6c-0.1-0.7-0.1-1.4,0.1-2c0.1-0.7,0.4-1.3,0.7-1.8c1.2-2.2,3-3.1,3.8-3.5
					s2.7-0.8,4.9-0.6c2.1,0.2,4.5,0.9,6.6,2.1c2.1,1.1,3.7,2.7,4.7,3.9s1.4,2.3,1.2,2.4c-0.2,0.2-1-0.5-2.2-1.3
					c-1.2-0.9-2.9-1.9-4.8-2.6c-1.9-0.7-4-1-5.6-1C82.9,70.1,81.8,70.5,81.3,70.8z"/>
			</g>
			<g>
				<path class="st0" d="M169.6,49.6c0.4,0.5,1,1.6,1.6,3.1s1.2,3.2,1.6,4.9c0.9,3.4,1,6.6,0.9,6.6c-0.2,0-1.3-2.9-2.9-5.8
					c-0.8-1.5-1.7-3-2.5-4.1c-0.8-1.2-1.5-2-1.8-2.4s-0.9-1.3-1.8-2.3s-2.1-2.2-3.4-3.2c-1.3-1-2.6-1.8-3.6-2.4s-1.7-1-1.7-1.3
					c0.1-0.2,0.9-0.3,2.2-0.2c1.3,0.2,2.9,0.7,4.6,1.5c1.6,0.8,3.2,1.9,4.4,3C168.4,48,169.2,49.1,169.6,49.6z"/>
			</g>
			<g>
				<path class="st0" d="M165.2,40.4c0.2,0.2,0.7,0.5,1.4,1.2c0.7,0.7,1.5,1.6,2.2,2.5c1.5,1.9,3,3.7,3.1,3.7
					c0.1-0.1-0.7-2.2-1.7-4.6c-0.5-1.2-1-2.3-1.7-3.3c-0.6-1-1.2-1.6-1.5-1.9c-0.5-0.5-1.4-0.8-2.2-0.9c-0.8,0-1.4,0.3-1.5,0.7
					s0.3,0.9,0.7,1.3C164.5,39.6,164.9,40.1,165.2,40.4z"/>
			</g>
			<g>
				<path class="st0" d="M161,76.7c0.2-0.1,0.8-0.3,1.6-0.5c0.9-0.2,2-0.3,3.1-0.4c1.2-0.1,2.3-0.2,3-0.1c0.8,0.1,1.2,0.5,1.3,0.4
					c0.1,0-0.2-0.6-1-1.1s-2-0.7-3.1-1c-1.2-0.3-2.4-0.5-3.5-0.5s-2,0.1-2.3,0.2c-0.6,0.2-1.4,0.7-1.8,1.3c-0.5,0.6-0.6,1.2-0.3,1.5
					s0.9,0.3,1.4,0.3C160,76.9,160.6,76.9,161,76.7z"/>
			</g>
			<g>
				<path class="st0" d="M165,84.4c0.2-0.2,1.1-1.3,2.4-2c1.2-0.7,2.7-1,2.7-1.1s-1.4-0.7-3.2-0.6c-0.9,0.1-1.8,0.3-2.4,0.5
					c-0.7,0.3-1.2,0.6-1.4,0.7c-0.3,0.3-0.6,0.8-0.7,1.3c-0.1,0.5,0,1,0.4,1.3c0.4,0.2,0.8,0.2,1.2,0.2
					C164.4,84.7,164.8,84.6,165,84.4z"/>
			</g>
			<g>
				<path class="st0" d="M123.9,41.4c0.1,0.4,0.4,1.5,1.1,2.7c0.7,1.2,1.8,2.6,3.1,3.6c1.2,1,2.6,1.8,3.7,2.2
					c1.1,0.4,1.8,0.5,1.8,0.4s-0.6-0.4-1.5-1s-1.9-1.6-2.8-2.7c-0.9-1.1-1.5-2.4-1.9-3.5s-0.5-1.9-0.6-2.2c-0.1-0.6-0.4-1.3-0.6-1.9
					c-0.2-0.6-0.3-1.2-0.6-1.5c-0.3-0.2-1.1,0.2-1.5,1.2C123.7,39.4,123.7,40.6,123.9,41.4z"/>
			</g>
			<g>
				<path class="st0" d="M91.7,58.4c-0.1,0.2-0.5,0.8-0.6,1.7c-0.2,0.8-0.2,1.8-0.1,2.8c0.2,1.8,0.8,3.3,0.9,3.3
					c0.2,0,0.4-1.7,0.8-3.2c0.2-0.8,0.5-1.5,0.9-2c0.3-0.5,0.6-0.8,0.7-0.9c0.2-0.2,0.3-0.6,0.3-1c0.1-0.4,0.1-0.9-0.1-1.3
					c-0.2-0.4-0.7-0.5-1.3-0.4C92.6,57.5,92,58,91.7,58.4z"/>
			</g>
			<g>
				<path class="st0" d="M84.4,63.4c0.2,0,0.8,0,1.6,0.1s1.7,0.3,2.6,0.7c0.9,0.4,1.7,0.9,2.3,1.3c0.6,0.4,0.9,0.8,1,0.8
					s-0.1-0.5-0.5-1.2s-1.1-1.6-1.9-2.3s-1.9-1.4-2.8-1.8c-0.9-0.4-1.7-0.6-2-0.6c-0.6-0.1-1.4,0.1-1.9,0.4
					c-0.6,0.3-0.9,0.8-0.9,1.2c0.1,0.4,0.5,0.7,1,1C83.5,63.2,84,63.4,84.4,63.4z"/>
			</g>
		</g>
		<g>
			<g>
				<path class="st0" d="M229,60.4c0.5,1.2,1.3,3.1,1.5,5.7c0.2,2.6-0.2,5.8-1.9,8.9c-0.8,1.5-2,3-3.5,4.2s-3.3,2.1-5.2,2.5
					s-4,0.4-5.9-0.1c-2-0.5-3.7-1.7-5-3.2s-2.2-3.3-2.4-5.2c-0.3-1.9,0.1-3.8,0.9-5.3c1.6-3.1,4.7-4.9,7.4-4.9
					c1.3,0,2.6,0.3,3.5,0.8s1.5,1.3,1.9,1.9c0.4,0.7,0.5,1.2,0.5,1.6s0,0.6,0,0.6c-0.1,0,0-0.9-0.8-2c-0.4-0.6-1-1.2-1.9-1.6
					c-0.9-0.4-1.9-0.6-3.1-0.5s-2.4,0.6-3.5,1.4c-1.1,0.8-2,1.9-2.6,3.3s-0.8,2.9-0.4,4.3c0.3,1.5,1.1,2.9,2.2,4s2.5,1.9,4,2.2
					s3.1,0.2,4.6-0.2c3-0.8,5.2-3,6.4-5.5c1.2-2.5,1.4-5,1.2-7c-0.2-2-0.9-3.5-1.3-4.4s-1.2-2.3-2.6-3.8s-3.5-3-6.2-4.1
					c-2.6-1.2-5.8-1.8-9.1-1.9c-3.3,0-6.7,0.6-9.9,1.7s-6.1,2.9-8.5,4.8c-2.4,2-4.4,4.1-6,6c-3.1,3.9-4.5,6.8-4.7,6.7
					c-0.1,0,0.1-0.9,0.6-2.2s1.5-3.2,2.9-5.4c1.4-2.1,3.3-4.5,5.8-6.8c2.5-2.2,5.5-4.3,8.9-5.7s7.2-2.3,10.9-2.4
					c3.7-0.1,7.3,0.5,10.4,1.8c3.1,1.2,5.7,2.9,7.5,4.8C227.4,57.4,228.4,59.2,229,60.4z"/>
			</g>
			<g>
				<path class="st0" d="M216.2,45.7c0.3-0.3,1.1-1,1.5-2.1c0.2-0.5,0.2-1.1,0.1-1.8c-0.2-0.7-0.6-1.3-1.1-1.8
					c-1.1-1.1-2.8-1.3-4-1.1s-2,0.8-2.1,0.7c0,0,0.5-0.8,1.8-1.5c0.6-0.3,1.5-0.6,2.5-0.6s2.1,0.2,3.1,0.8s1.9,1.5,2.4,2.6
					c0.6,1.1,0.7,2.4,0.6,3.5s-0.5,2-0.9,2.7s-0.8,1.2-1.1,1.5c-0.3,0.3-0.7,0.7-1.4,1.1c-0.7,0.4-1.5,0.8-2.4,1.1
					c-1.9,0.6-4,0.7-6,0.7c-1.9,0-3.7-0.1-5-0.1s-2.2,0.1-2.3-0.1c-0.1-0.2,0.6-0.8,2-1.3c1.3-0.5,3.2-0.8,5.1-1.1s3.7-0.7,4.9-1.3
					C215.2,46.7,215.9,46,216.2,45.7z"/>
			</g>
			<g>
				<path class="st0" d="M204.2,54.1c0.6,0.3,2.1,1.2,3.1,3c0.3,0.4,0.5,0.9,0.7,1.5s0.3,1.2,0.2,1.8c-0.1,1.2-0.6,2.4-1.3,3.3
					c-0.7,0.9-1.7,1.5-2.6,1.8s-1.8,0.3-2.5,0.2c-1.4-0.2-2.2-0.6-2.1-0.7c0-0.1,0.9,0,2.1-0.2c0.6-0.1,1.3-0.3,1.9-0.7
					s1.1-0.9,1.4-1.6c0.3-0.7,0.4-1.4,0.3-2s-0.4-1-0.8-1.5c-0.9-0.9-1.8-1.3-2.2-1.5c-0.4-0.2-1.3-0.7-2.7-0.9
					c-1.3-0.3-3-0.2-4.7,0.2s-3.3,1-4.5,1.4c-1.2,0.5-2.1,0.7-2.2,0.5s0.4-0.9,1.5-1.8c1-0.9,2.6-1.9,4.4-2.7
					c0.9-0.4,1.9-0.7,2.9-0.9s2-0.2,3-0.2C202.1,53.2,203.6,53.8,204.2,54.1z"/>
			</g>
			<g>
				<path class="st0" d="M187.3,67c0.5-0.2,1.5-0.4,2.8-0.5s2.8,0.1,4.2,0.5s2.6,0.9,3.4,1.5c0.8,0.5,1.3,1,1.2,1
					c0,0.1-0.6,0-1.6-0.2s-2.1-0.2-3.3-0.1c-1.2,0.1-2.5,0.3-3.4,0.7c-1,0.3-1.7,0.7-2,0.8s-1.1,0.3-2,0.8c-0.9,0.4-2,1-2.9,1.8
					c-1,0.7-1.8,1.5-2.5,2.2s-1.1,1.1-1.4,1c-0.2-0.1-0.2-0.8,0.1-1.7c0.3-1,0.9-2.2,1.8-3.3s2-2.2,3.1-2.9
					C185.8,67.6,186.8,67.2,187.3,67z"/>
			</g>
			<g>
				<path class="st0" d="M253.1,73c0.3-0.4,0.8-1,1.2-2c0.4-1,0.7-2.2,0.6-3.7c-0.1-1.4-0.6-3-1.7-4.2c-1-1.3-2.6-2.2-4.2-2.3
					c-1.7-0.2-3.4,0.4-4.5,1.5s-1.5,2.7-1.3,3.9s1,2.1,1.6,2.6s1.1,0.5,1.1,0.6c0,0-0.5,0.1-1.3-0.3c-0.8-0.3-1.8-1.2-2.3-2.7
					s-0.2-3.5,1-5.1c1.2-1.7,3.4-2.7,5.7-2.8c2.3-0.1,4.7,1,6.2,2.6c1.6,1.6,2.6,3.7,3,5.7c0.3,2,0.1,3.9-0.4,5.3
					c-0.5,1.5-1.2,2.5-1.7,3.2c-0.5,0.7-1.4,1.5-2.7,2.3c-1.3,0.8-3.1,1.5-5.1,1.7c-2.1,0.2-4.3-0.4-6.2-1.4s-3.7-2.3-5.1-3.8
					c-2.9-3-4.8-6.4-6.3-8.8c-1.5-2.4-2.3-4-2.1-4.2c0.2-0.2,1.5,1.2,3.3,3.3s4.1,5.2,7,7.7c1.4,1.2,3,2.3,4.6,2.9
					c1.6,0.7,3.2,0.9,4.6,0.7s2.6-0.7,3.4-1.3C252.3,74,252.8,73.4,253.1,73z"/>
			</g>
			<g>
				<path class="st0" d="M272.1,67.2c0.8,0.3,2.6,1.3,3.8,3.5c0.3,0.5,0.5,1.2,0.7,1.8c0.1,0.7,0.2,1.4,0.1,2
					c-0.2,1.4-0.8,2.7-1.7,3.6c-0.9,1-2.2,1.6-3.3,1.7c-1.1,0.1-2.2-0.2-2.9-0.5c-0.8-0.4-1.3-0.9-1.5-1.2s-0.4-0.6-0.3-0.7
					c0.1-0.1,0.8,0.7,2.2,1c0.7,0.1,1.5,0.2,2.3-0.1s1.5-0.8,1.9-1.5s0.6-1.6,0.6-2.4c-0.1-0.8-0.4-1.4-0.8-2
					c-0.9-1.1-2-1.5-2.5-1.7s-1.6-0.6-3.3-0.6c-1.6,0-3.7,0.3-5.6,1s-3.6,1.7-4.8,2.6c-1.2,0.8-2,1.5-2.2,1.3s0.2-1.1,1.2-2.4
					c1-1.3,2.7-2.8,4.7-3.9c2.1-1.2,4.4-1.9,6.6-2.1C269.4,66.4,271.3,66.8,272.1,67.2z"/>
			</g>
			<g>
				<path class="st0" d="M185.5,51.8c-0.3,0.4-1,1.2-1.8,2.4s-1.7,2.7-2.5,4.1c-1.6,2.9-2.7,5.9-2.9,5.8c-0.2,0,0-3.2,0.9-6.6
					c0.4-1.7,1-3.5,1.6-4.9c0.6-1.5,1.3-2.6,1.6-3.1c0.4-0.5,1.2-1.5,2.4-2.6c1.2-1.1,2.8-2.2,4.4-3s3.3-1.3,4.6-1.5
					c1.3-0.2,2.1-0.1,2.2,0.2s-0.6,0.7-1.7,1.3s-2.4,1.4-3.6,2.4c-1.3,1-2.5,2.1-3.4,3.2C186.4,50.5,185.8,51.4,185.5,51.8z"/>
			</g>
			<g>
				<path class="st0" d="M184.8,38.1c-0.3,0.2-0.9,0.9-1.5,1.9s-1.2,2.2-1.7,3.3c-1,2.3-1.8,4.5-1.7,4.6s1.6-1.7,3.1-3.7
					c0.8-1,1.5-1.9,2.2-2.5c0.7-0.7,1.2-1,1.4-1.2c0.4-0.3,0.8-0.8,1.1-1.2c0.4-0.5,0.7-0.9,0.7-1.3c-0.1-0.4-0.7-0.7-1.5-0.7
					C186.2,37.2,185.3,37.6,184.8,38.1z"/>
			</g>
			<g>
				<path class="st0" d="M191.8,73.8c-0.3-0.1-1.2-0.2-2.3-0.2c-1.1,0-2.4,0.2-3.5,0.5s-2.3,0.5-3.1,1c-0.8,0.5-1.1,1.1-1,1.1
					s0.5-0.3,1.3-0.4c0.8-0.1,1.8,0,3,0.1c1.1,0.1,2.3,0.2,3.1,0.4c0.9,0.2,1.4,0.5,1.6,0.5c0.4,0.1,1,0.2,1.6,0.2s1.1,0,1.4-0.3
					s0.1-0.9-0.3-1.5C193.2,74.5,192.4,74,191.8,73.8z"/>
			</g>
			<g>
				<path class="st0" d="M188.9,82.1c-0.2-0.1-0.7-0.5-1.4-0.7c-0.7-0.3-1.6-0.5-2.5-0.5c-1.8-0.2-3.2,0.4-3.2,0.6
					c0,0.1,1.5,0.4,2.7,1.1c1.3,0.7,2.1,1.8,2.4,2c0.2,0.2,0.6,0.3,1.1,0.4c0.4,0.1,0.9,0.1,1.2-0.2c0.3-0.2,0.5-0.7,0.4-1.3
					S189.2,82.3,188.9,82.1z"/>
			</g>
			<g>
				<path class="st0" d="M225.1,40.7c-0.1,0.3-0.2,1.2-0.6,2.2c-0.4,1.1-1,2.4-1.9,3.5c-0.9,1.2-1.9,2.1-2.8,2.7
					c-0.9,0.6-1.5,1-1.5,1c0,0.1,0.8,0,1.8-0.4s2.5-1.1,3.7-2.2c1.3-1,2.4-2.4,3.1-3.6c0.7-1.2,1-2.3,1.1-2.7c0.2-0.8,0.2-2-0.3-3
					c-0.4-1-1.2-1.4-1.5-1.2c-0.4,0.2-0.4,0.9-0.6,1.5C225.5,39.4,225.2,40.1,225.1,40.7z"/>
			</g>
			<g>
				<path class="st0" d="M257.7,60.1c0.1,0.1,0.4,0.4,0.7,0.9c0.3,0.5,0.6,1.2,0.9,2c0.5,1.5,0.6,3.2,0.8,3.2c0.1,0,0.7-1.5,0.9-3.3
					c0.1-0.9,0.1-1.9-0.1-2.8c-0.2-0.8-0.5-1.5-0.6-1.7c-0.3-0.4-0.9-0.9-1.5-1s-1.1,0-1.3,0.4c-0.2,0.4-0.1,0.8-0.1,1.3
					C257.5,59.5,257.6,59.9,257.7,60.1z"/>
			</g>
			<g>
				<path class="st0" d="M267.2,60.4c-0.3,0-1,0.2-2,0.6c-0.9,0.4-2,1-2.8,1.8c-0.9,0.8-1.5,1.6-1.9,2.3s-0.5,1.2-0.5,1.2
					c0.1,0,0.4-0.3,1-0.8s1.4-1,2.3-1.3c0.9-0.4,1.9-0.6,2.6-0.7s1.4-0.1,1.5-0.1c0.4,0,1-0.2,1.5-0.5c0.5-0.2,1-0.5,1-1
					c0.1-0.4-0.3-0.9-0.9-1.2C268.6,60.5,267.8,60.3,267.2,60.4z"/>
			</g>
		</g>
	</g>
	<path class="st0" d="M178.3,82c0.1-0.4,0.2-0.8,0.3-1.2c0.4-0.1,0.8-0.1,1.2-0.2c1.1-0.3,2.1-0.7,3.2-1.6c-1-1-2-1.5-3.1-1.8
		c-0.4-0.1-0.8-0.2-1.2-0.3c-0.1-0.4-0.1-0.8-0.2-1.2c-0.3-1.1-0.7-2.1-1.6-3.2c-1,1-1.5,2-1.8,3.1c-0.1,0.4-0.2,0.8-0.3,1.2
		c-0.4,0.1-0.8,0.1-1.2,0.2c-1.1,0.3-2.1,0.7-3.2,1.6c1,1,2,1.5,3.1,1.8c0.4,0.1,0.8,0.2,1.2,0.3c0.1,0.4,0.1,0.8,0.2,1.2
		c0.3,1.1,0.7,2.1,1.6,3.2C177.4,84.1,177.9,83.1,178.3,82z"/>
</g>
</svg>
