<?xml version="1.0" encoding="utf-8"?>
<!-- Generator: Adobe Illustrator 26.5.2, SVG Export Plug-In . SVG Version: 6.00 Build 0)  -->
<svg version="1.1" id="Lag_1" xmlns="http://www.w3.org/2000/svg" xmlns:xlink="http://www.w3.org/1999/xlink" x="0px" y="0px"
	 viewBox="0 0 114 110" style="enable-background:new 0 0 114 110;" xml:space="preserve">
<style type="text/css">
	.st0{fill:#E1BB19;}
</style>
<g>
	<g>
		<g>
			<g>
				<path class="st0" d="M44.8,33.6c0.2,0.2,0.5,0.4,1,0.9s1.2,1,1.9,1.7c1.4,1.3,3.2,3,4.8,4.8c3.2,3.6,5.7,7.7,6,7.5
					c0.4-0.1,0-5-1.8-10c-0.9-2.5-2-5-3.1-7c-0.5-1-1.1-1.8-1.5-2.5c-0.5-0.7-0.9-1.2-1.1-1.4c-1-1-2.9-2.1-4.9-2.2
					c-1,0-1.9,0.2-2.5,0.6s-0.9,0.9-1,1.5s0.1,1.2,0.3,1.7s0.3,1,0.5,1.6C43.7,31.9,44.1,32.9,44.8,33.6z"/>
			</g>
			<g>
				<path class="st0" d="M68.2,27.6c-0.2,0.2-0.7,0.8-1.1,1.4c-0.4,0.7-1,1.5-1.5,2.5c-1.1,2-2.3,4.5-3.1,7c-1.8,5-2.2,9.9-1.8,10
					s2.8-4,6-7.5c1.6-1.8,3.3-3.5,4.8-4.8c0.7-0.7,1.4-1.2,1.9-1.7c0.5-0.4,0.8-0.7,1-0.9c0.7-0.7,1.1-1.7,1.4-2.7
					c0.2-0.6,0.4-1.2,0.5-1.6c0.2-0.6,0.3-1.1,0.3-1.7c-0.1-0.6-0.4-1.1-1-1.5s-1.5-0.6-2.5-0.6C71.2,25.5,69.2,26.6,68.2,27.6z"/>
			</g>
			<g>
				<path class="st0" d="M55.1,22c0,1.9,3.5,17.4,4.3,17.4s4.3-15.5,4.3-17.4s-1.9-5.2-4.3-5.2S55.1,20.1,55.1,22z"/>
			</g>
		</g>
		<g>
			<g>
				<path class="st0" d="M44.8,73.1c0.2-0.2,0.5-0.4,1-0.9s1.2-1,1.9-1.7c1.4-1.3,3.2-3,4.8-4.8c3.2-3.6,5.7-7.7,6-7.5
					c0.4,0.1,0,5-1.8,10c-0.9,2.5-2,5-3.1,7c-0.5,1-1.1,1.8-1.5,2.5c-0.5,0.7-0.9,1.2-1.1,1.4c-1,1-2.9,2.1-4.9,2.2
					c-1,0-1.9-0.2-2.5-0.6s-0.9-0.9-1-1.5s0.1-1.2,0.3-1.7s0.3-1,0.5-1.6C43.7,74.8,44.1,73.8,44.8,73.1z"/>
			</g>
			<g>
				<path class="st0" d="M68.2,79.1c-0.2-0.2-0.7-0.8-1.1-1.4c-0.4-0.7-1-1.5-1.5-2.5c-1.1-2-2.3-4.5-3.1-7c-1.8-5-2.2-9.9-1.8-10
					s2.8,4,6,7.5c1.6,1.8,3.3,3.5,4.8,4.8c0.7,0.7,1.4,1.2,1.9,1.7c0.5,0.4,0.8,0.7,1,0.9c0.7,0.7,1.1,1.7,1.4,2.7
					c0.2,0.6,0.4,1.2,0.5,1.6c0.2,0.6,0.3,1.1,0.3,1.7c-0.1,0.6-0.4,1.1-1,1.5s-1.5,0.6-2.5,0.6C71.2,81.2,69.2,80.1,68.2,79.1z"/>
			</g>
			<g>
				<path class="st0" d="M55.1,84.6c0-1.9,3.5-17.4,4.3-17.4s4.3,15.5,4.3,17.4s-1.9,5.2-4.3,5.2S55.1,86.5,55.1,84.6z"/>
			</g>
		</g>
	</g>
	<g>
		<g>
			<g>
				<path class="st0" d="M39.8,38.5c0.2,0.2,0.4,0.5,0.9,1s1,1.2,1.7,1.9c1.3,1.4,3,3.2,4.8,4.8c3.6,3.2,7.7,5.6,7.5,6
					c-0.1,0.4-5,0-10-1.8c-2.5-0.9-5-2-7-3.1c-1-0.5-1.8-1.1-2.5-1.5c-0.7-0.5-1.2-0.9-1.4-1.1c-1-1-2.1-2.9-2.2-4.9
					c0-1,0.2-1.9,0.6-2.5c0.4-0.6,0.9-0.9,1.5-1s1.2,0.1,1.7,0.3c0.5,0.1,1,0.3,1.6,0.5C38.1,37.4,39.1,37.9,39.8,38.5z"/>
			</g>
			<g>
				<path class="st0" d="M33.8,62c0.2-0.2,0.8-0.7,1.4-1.1c0.7-0.4,1.5-1,2.5-1.5c2-1.1,4.5-2.3,7-3.1c5-1.8,9.9-2.2,10-1.8
					c0.1,0.4-4,2.8-7.5,6c-1.8,1.6-3.5,3.3-4.8,4.8c-0.7,0.7-1.2,1.4-1.7,1.9c-0.4,0.5-0.7,0.8-0.9,1c-0.7,0.6-1.7,1.1-2.7,1.4
					c-0.6,0.2-1.2,0.4-1.6,0.5c-0.6,0.2-1.1,0.4-1.7,0.3c-0.6-0.1-1.1-0.4-1.5-1s-0.6-1.5-0.6-2.5C31.7,64.9,32.8,62.9,33.8,62z"/>
			</g>
			<g>
				<path class="st0" d="M28.3,48.9c1.9,0,17.4,3.5,17.4,4.3s-15.5,4.3-17.4,4.3s-5.2-1.9-5.2-4.3S26.4,48.9,28.3,48.9z"/>
			</g>
		</g>
		<g>
			<g>
				<path class="st0" d="M79.3,38.5c-0.2,0.2-0.4,0.5-0.9,1s-1,1.2-1.7,1.9c-1.3,1.4-3,3.2-4.8,4.8c-3.6,3.2-7.7,5.6-7.5,6
					c0.1,0.4,5,0,10-1.8c2.5-0.9,5-2,7-3.1c1-0.5,1.8-1.1,2.5-1.5c0.7-0.5,1.2-0.9,1.4-1.1c1-1,2.1-2.9,2.2-4.9c0-1-0.2-1.9-0.6-2.5
					c-0.4-0.6-0.9-0.9-1.5-1s-1.2,0.1-1.7,0.3c-0.5,0.1-1,0.3-1.6,0.5C81,37.4,80,37.9,79.3,38.5z"/>
			</g>
			<g>
				<path class="st0" d="M85.3,62c-0.2-0.2-0.8-0.7-1.4-1.1c-0.7-0.4-1.5-1-2.5-1.5c-2-1.1-4.5-2.3-7-3.1c-5-1.8-9.9-2.2-10-1.8
					c-0.1,0.4,4,2.8,7.5,6c1.8,1.6,3.5,3.3,4.8,4.8c0.7,0.7,1.2,1.4,1.7,1.9c0.4,0.5,0.7,0.8,0.9,1c0.7,0.6,1.7,1.1,2.7,1.4
					c0.6,0.2,1.2,0.4,1.6,0.5c0.6,0.2,1.1,0.4,1.7,0.3c0.6-0.1,1.1-0.4,1.5-1s0.6-1.5,0.6-2.5C87.4,64.9,86.3,62.9,85.3,62z"/>
			</g>
			<g>
				<path class="st0" d="M90.9,48.9c-1.9,0-17.4,3.5-17.4,4.3s15.5,4.3,17.4,4.3s5.2-1.9,5.2-4.3S92.8,48.9,90.9,48.9z"/>
			</g>
		</g>
	</g>
</g>
</svg>
