<?xml version="1.0" encoding="utf-8"?>
<!-- Generator: Adobe Illustrator 26.5.2, SVG Export Plug-In . SVG Version: 6.00 Build 0)  -->
<svg version="1.1" id="Lag_1" xmlns="http://www.w3.org/2000/svg" xmlns:xlink="http://www.w3.org/1999/xlink" x="0px" y="0px"
	 viewBox="0 0 348.7 117.6" style="enable-background:new 0 0 348.7 117.6;" xml:space="preserve">
<style type="text/css">
	.st0{fill:#E1BB19;}
</style>
<g>
	<g>
		<g>
			<rect x="29.8" y="49.6" class="st0" width="102.8" height="1"/>
		</g>
		<path class="st0" d="M24.9,50.6c0,0.2,3.1,0.7,5,0.9c-0.5,0.3-0.9,0.7-1,0.9s-0.3,0.9-0.3,1.6c-0.1,0.7-0.1,1.3,0,1.4
			c0.1,0.1,0.7-0.3,1.2-0.6s0.9-0.6,1.2-0.8v0.1c-0.1,0.4-0.1,1.4,0.4,2.4c0.3,0.5,0.7,1,1.2,1.3c0.5,0.4,1.1,0.6,1.7,0.6
			c1.2,0.1,2.2-0.4,2.7-1c0.5-0.5,0.6-1,0.6-1c-0.1,0-0.4,0.3-0.9,0.5c-0.6,0.2-1.4,0.3-2,0c-0.7-0.3-1-0.8-1.1-1.3s0-0.9,0-1.1
			c0-0.1,0-0.2,0.1-0.4c0-0.1,0.1-0.3,0.3-0.5c0.2-0.2,0.4-0.5,0.7-0.7c0.3-0.2,0.7-0.5,1-0.8c0.7-0.5,1.4-0.9,2-1.1s1-0.4,1-0.6
			c0-0.1-0.1-0.2-0.2-0.2c0.1-0.1,0.2-0.1,0.2-0.2c0-0.2-0.4-0.3-1-0.6s-1.3-0.6-2-1.1c-0.3-0.2-0.7-0.5-1-0.8
			c-0.3-0.2-0.6-0.5-0.7-0.7c-0.2-0.2-0.2-0.4-0.3-0.5c-0.1-0.2-0.1-0.3-0.1-0.4c0-0.2-0.1-0.5,0-1.1c0.1-0.5,0.4-1.1,1.1-1.3
			c0.6-0.3,1.5-0.2,2,0c0.6,0.2,0.9,0.5,0.9,0.5s-0.1-0.5-0.6-1s-1.5-1-2.7-1c-0.6,0-1.2,0.2-1.7,0.6c-0.5,0.4-0.9,0.8-1.2,1.3
			c-0.5,1-0.5,1.9-0.4,2.4v0.1c-0.2-0.2-0.8-0.6-1.3-0.9c-0.6-0.4-1.3-0.6-1.4-0.5s0,0.7,0.2,1.4c0.1,0.7,0.3,1.4,0.4,1.5
			c0.1,0.2,0.6,0.7,1.1,1.1l0.1,0.1C28.3,49.5,24.9,50.4,24.9,50.6z M32.2,51.9c-0.2,0.2-0.5,0.5-0.7,0.8c0.1-0.4,0.2-0.8,0.2-1.1
			c0.3,0,0.7-0.1,1.2-0.2C32.6,51.5,32.4,51.7,32.2,51.9z M32.2,48.4c0.3,0.3,0.6,0.5,0.9,0.7c-0.5,0-1-0.1-1.4-0.1
			c0-0.3,0-0.5-0.1-0.8c0-0.2-0.1-0.3-0.1-0.5C31.7,47.9,31.9,48.2,32.2,48.4z"/>
	</g>
	<g>
		<g>
			<rect x="219.8" y="49.6" class="st0" width="102.8" height="1"/>
		</g>
		<path class="st0" d="M322.3,49.1l0.1-0.1c0.5-0.4,1-0.9,1.1-1.1c0.1-0.2,0.2-0.9,0.4-1.5c0.1-0.7,0.3-1.3,0.2-1.4
			c-0.1-0.1-0.7,0.2-1.4,0.5c-0.5,0.3-1,0.7-1.3,0.9v-0.1c0.1-0.4,0.1-1.4-0.5-2.4c-0.3-0.5-0.6-1-1.2-1.3c-0.5-0.4-1.1-0.6-1.7-0.6
			c-1.2-0.1-2.1,0.4-2.7,1c-0.5,0.5-0.6,1-0.6,1c0.1,0,0.4-0.3,0.9-0.5s1.4-0.3,2,0c0.7,0.3,1,0.8,1.1,1.3s0,0.9,0,1.1
			c0,0.1,0,0.2-0.1,0.4c0,0.1-0.1,0.3-0.3,0.5c-0.2,0.2-0.4,0.5-0.7,0.7c-0.3,0.2-0.7,0.5-1,0.8c-0.7,0.5-1.4,0.9-2,1.1
			s-1,0.4-1,0.6c0,0.1,0.1,0.2,0.2,0.2c-0.1,0.1-0.2,0.1-0.2,0.2c0,0.2,0.4,0.3,1,0.6s1.3,0.6,2,1.1c0.4,0.2,0.7,0.5,1,0.8
			c0.3,0.2,0.6,0.5,0.7,0.7c0.2,0.2,0.2,0.4,0.3,0.5c0,0.2,0.1,0.3,0.1,0.4c0,0.2,0.1,0.5,0,1.1c-0.1,0.5-0.4,1.1-1.1,1.3
			c-0.6,0.3-1.5,0.2-2,0c-0.6-0.2-0.9-0.5-0.9-0.5s0,0.5,0.6,1c0.5,0.5,1.5,1,2.7,1c0.6,0,1.2-0.2,1.7-0.6c0.5-0.4,0.9-0.8,1.2-1.3
			c0.5-1,0.5-1.9,0.5-2.4V54c0.2,0.2,0.7,0.5,1.2,0.8c0.6,0.3,1.1,0.7,1.2,0.6s0.1-0.7,0-1.4s-0.2-1.4-0.4-1.6
			c-0.1-0.2-0.5-0.5-1-0.9c1.9-0.2,5-0.7,5-0.9C327.5,50.4,324,49.5,322.3,49.1z M319.5,51.4c0.4,0.1,0.8,0.1,1.1,0.2
			c0,0.3,0.1,0.7,0.2,1.1c-0.2-0.3-0.4-0.5-0.6-0.8C320,51.7,319.7,51.5,319.5,51.4z M320.9,47.6c0,0.2-0.1,0.3-0.1,0.5
			c0,0.3-0.1,0.6-0.1,0.8c-0.4,0-0.9,0-1.4,0.1c0.3-0.2,0.6-0.4,0.9-0.7C320.4,48.2,320.7,47.9,320.9,47.6z"/>
	</g>
	<g>
		<g>
			<path class="st0" d="M174.4,96.2c0-2.8,2.5-25.5,3-25.5s3,22.7,3,25.5s-1.4,7.7-3,7.7S174.4,99.1,174.4,96.2z"/>
		</g>
		<g>
			<g>
				<path class="st0" d="M128.3,68.4c-0.4-0.9-1.1-2.4-1.3-4.4c-0.2-2,0-4.5,1.2-7c1.2-2.4,3.4-4.7,6.4-5.5c1.5-0.4,3.1-0.5,4.6-0.2
					s2.9,1.1,4,2.2c1.1,1.1,1.9,2.5,2.2,4s0.1,3-0.4,4.3c-0.6,1.3-1.5,2.5-2.6,3.3s-2.3,1.3-3.5,1.4c-1.2,0.1-2.3-0.1-3.1-0.5
					c-0.9-0.4-1.5-1-1.9-1.6c-0.8-1.2-0.7-2-0.8-2c0,0-0.1,0.2,0,0.6c0,0.4,0.1,1,0.5,1.6c0.4,0.7,1,1.4,1.9,1.9s2.1,0.9,3.5,0.8
					c2.7,0,5.8-1.8,7.4-4.9c0.8-1.5,1.2-3.5,0.9-5.3c-0.3-1.9-1.1-3.7-2.4-5.2c-1.3-1.5-3.1-2.7-5-3.2s-4-0.5-5.9-0.1
					s-3.7,1.3-5.2,2.5c-1.5,1.2-2.6,2.7-3.4,4.2c-1.7,3-2.1,6.3-1.9,8.9c0.2,2.6,0.9,4.5,1.5,5.7s1.6,3,3.4,4.8
					c1.8,1.8,4.4,3.6,7.5,4.8s6.7,1.9,10.4,1.8c3.7-0.1,7.5-0.9,10.9-2.4s6.4-3.5,8.9-5.7c2.5-2.2,4.4-4.6,5.8-6.8
					c1.4-2.1,2.3-4,2.9-5.4c0.6-1.3,0.8-2.2,0.6-2.2c-0.3-0.1-1.7,2.8-4.7,6.7c-1.5,1.9-3.5,4-5.9,6c-2.4,1.9-5.3,3.7-8.5,4.8
					c-3.2,1.2-6.6,1.8-9.9,1.7c-3.3-0.1-6.4-0.7-9.1-1.9c-2.6-1.1-4.7-2.6-6.2-4.1C129.5,70.7,128.7,69.3,128.3,68.4z"/>
			</g>
			<g>
				<path class="st0" d="M134.8,82c-0.3,0.3-0.7,0.8-1.1,1.5c-0.4,0.7-0.8,1.6-0.9,2.7c-0.1,1.1,0,2.4,0.6,3.5s1.4,2,2.4,2.6
					s2.1,0.8,3.1,0.8s1.9-0.3,2.5-0.6c1.3-0.7,1.8-1.5,1.8-1.5c-0.1-0.1-0.8,0.5-2.1,0.7c-1.2,0.2-3,0-4.1-1.1
					c-0.6-0.5-0.9-1.2-1.1-1.8c-0.2-0.7-0.1-1.2,0.1-1.8c0.4-1.1,1.1-1.8,1.4-2.1c0.3-0.3,1-1,2.3-1.6s3.1-1,4.9-1.3
					c1.9-0.3,3.8-0.6,5.1-1.1c1.4-0.5,2.1-1.1,2-1.3s-1-0.2-2.3-0.1c-1.3,0-3.1-0.1-5-0.1s-4.1,0.1-6,0.7c-0.9,0.3-1.8,0.7-2.4,1.1
					C135.6,81.3,135.1,81.7,134.8,82z"/>
			</g>
			<g>
				<path class="st0" d="M151.3,72.9c-0.4-0.2-1.3-0.6-2.2-1.5c-0.4-0.5-0.7-0.9-0.8-1.5s0-1.3,0.3-2s0.8-1.2,1.4-1.6
					c0.6-0.4,1.3-0.6,1.9-0.7c1.2-0.2,2.1-0.1,2.1-0.2c0-0.1-0.7-0.5-2.1-0.7c-0.7-0.1-1.6,0-2.5,0.2c-0.9,0.3-1.9,0.9-2.6,1.8
					c-0.7,0.9-1.2,2-1.3,3.3c0,0.6,0.1,1.3,0.2,1.8c0.2,0.6,0.4,1.1,0.7,1.5c1.1,1.7,2.5,2.6,3.1,3c0.6,0.3,2.2,0.9,4,1
					c0.9,0.1,2,0,3-0.2s2-0.5,2.9-0.9c1.9-0.8,3.4-1.9,4.4-2.7s1.6-1.6,1.5-1.8s-1,0-2.2,0.5s-2.8,1.1-4.5,1.4
					c-1.7,0.4-3.4,0.4-4.7,0.2C152.6,73.5,151.7,73.1,151.3,72.9z"/>
			</g>
			<g>
				<path class="st0" d="M165.2,59.8c-0.4,0.1-1.1,0.5-2,0.8c-1,0.3-2.2,0.6-3.4,0.7c-1.2,0.1-2.4,0-3.3-0.1
					c-0.9-0.1-1.5-0.3-1.6-0.2c0,0.1,0.4,0.5,1.2,1s2.1,1.1,3.4,1.5c1.4,0.4,2.9,0.5,4.2,0.5s2.3-0.3,2.8-0.5
					c0.5-0.2,1.4-0.6,2.5-1.3c1.1-0.7,2.2-1.8,3.1-2.9s1.5-2.4,1.8-3.3s0.3-1.6,0.1-1.7c-0.2-0.1-0.7,0.3-1.4,1
					c-0.6,0.6-1.5,1.5-2.5,2.2s-2,1.3-2.9,1.8C166.3,59.4,165.6,59.6,165.2,59.8z"/>
			</g>
			<g>
				<path class="st0" d="M97.7,54.9c-0.5,0.6-1.2,1.7-1.7,3.2s-0.8,3.3-0.4,5.3c0.3,2,1.3,4.1,2.9,5.7c1.6,1.6,3.9,2.7,6.2,2.6
					c2.3,0,4.5-1.1,5.7-2.8c1.2-1.6,1.5-3.7,1-5.1c-0.5-1.5-1.6-2.3-2.3-2.7c-0.8-0.4-1.3-0.3-1.3-0.3c0,0.1,0.4,0.2,1.1,0.6
					c0.6,0.4,1.4,1.3,1.6,2.6c0.2,1.2-0.2,2.8-1.3,3.9c-1.1,1.1-2.8,1.7-4.5,1.5c-1.7-0.1-3.2-1-4.2-2.3c-1.1-1.3-1.6-2.8-1.7-4.2
					c-0.1-1.4,0.2-2.7,0.6-3.7c0.4-1,0.9-1.6,1.2-2s0.9-1,1.7-1.6c0.9-0.6,2.1-1.1,3.4-1.3c1.4-0.2,3,0.1,4.6,0.7
					c1.6,0.7,3.2,1.7,4.6,2.9c2.8,2.5,5.1,5.5,7,7.7c1.8,2.2,3.1,3.5,3.3,3.3s-0.6-1.8-2.1-4.2c-1.5-2.4-3.4-5.7-6.3-8.8
					c-1.4-1.5-3.2-2.9-5.1-3.8s-4.2-1.5-6.2-1.4c-2.1,0.2-3.8,0.9-5.1,1.7C99,53.4,98.2,54.3,97.7,54.9z"/>
			</g>
			<g>
				<path class="st0" d="M83.1,59.6c-0.5-0.2-1.6-0.6-2.5-1.7c-0.4-0.5-0.7-1.2-0.8-2s0.1-1.7,0.6-2.4c0.4-0.7,1.1-1.3,1.9-1.5
					c0.8-0.3,1.6-0.3,2.3-0.1c1.4,0.3,2.1,1.1,2.2,1c0,0-0.1-0.3-0.3-0.7S85.7,51.3,85,51c-0.8-0.4-1.8-0.7-2.9-0.5
					c-1.1,0.1-2.4,0.7-3.3,1.7c-0.9,1-1.5,2.3-1.7,3.6c-0.1,0.7-0.1,1.4,0.1,2c0.1,0.7,0.4,1.3,0.7,1.8c1.2,2.2,3,3.1,3.8,3.5
					s2.7,0.8,4.9,0.6c2.1-0.2,4.5-0.9,6.6-2.1c2.1-1.1,3.7-2.7,4.7-3.9s1.4-2.3,1.2-2.4c-0.2-0.2-1,0.5-2.2,1.3
					c-1.2,0.9-2.9,1.9-4.8,2.6c-1.9,0.7-4,1-5.6,1C84.7,60.2,83.6,59.8,83.1,59.6z"/>
			</g>
			<g>
				<path class="st0" d="M171.4,80.8c0.4-0.5,1-1.6,1.6-3.1s1.2-3.2,1.6-4.9c0.9-3.4,1-6.6,0.9-6.6c-0.2,0-1.3,2.9-2.9,5.8
					c-0.8,1.5-1.7,3-2.5,4.1c-0.8,1.2-1.5,2-1.8,2.4s-0.9,1.3-1.8,2.3s-2.1,2.2-3.4,3.2c-1.3,1-2.6,1.8-3.6,2.4s-1.7,1-1.7,1.3
					c0.1,0.2,0.9,0.3,2.2,0.2c1.3-0.2,2.9-0.7,4.6-1.5c1.6-0.8,3.2-1.9,4.4-3C170.2,82.3,171,81.3,171.4,80.8z"/>
			</g>
			<g>
				<path class="st0" d="M167,90c0.2-0.2,0.7-0.5,1.4-1.2c0.7-0.7,1.5-1.6,2.2-2.5c1.5-1.9,3-3.7,3.1-3.7c0.1,0.1-0.7,2.2-1.7,4.6
					c-0.5,1.2-1,2.3-1.7,3.3c-0.6,1-1.2,1.6-1.5,1.9c-0.5,0.5-1.4,0.8-2.2,0.9c-0.8,0-1.4-0.3-1.5-0.7s0.3-0.9,0.7-1.3
					C166.3,90.7,166.7,90.3,167,90z"/>
			</g>
			<g>
				<path class="st0" d="M162.8,53.7c0.2,0.1,0.8,0.3,1.6,0.5c0.9,0.2,2,0.3,3.1,0.4c1.2,0.1,2.3,0.2,3,0.1c0.8-0.1,1.2-0.5,1.3-0.4
					c0.1,0-0.2,0.6-1,1.1s-2,0.7-3.1,1c-1.2,0.3-2.4,0.5-3.5,0.5s-2-0.1-2.3-0.2c-0.6-0.2-1.4-0.7-1.8-1.3c-0.5-0.6-0.6-1.2-0.3-1.5
					s0.9-0.3,1.4-0.3C161.8,53.5,162.4,53.5,162.8,53.7z"/>
			</g>
			<g>
				<path class="st0" d="M166.8,46c0.2,0.2,1.1,1.3,2.4,2c1.2,0.7,2.7,1,2.7,1.1s-1.4,0.7-3.2,0.6c-0.9-0.1-1.8-0.3-2.4-0.5
					c-0.7-0.3-1.2-0.6-1.4-0.7c-0.3-0.3-0.6-0.8-0.7-1.3c-0.1-0.5,0-1,0.4-1.3c0.4-0.2,0.8-0.2,1.2-0.2
					C166.2,45.6,166.6,45.8,166.8,46z"/>
			</g>
			<g>
				<path class="st0" d="M125.7,89c0.1-0.4,0.4-1.5,1.1-2.7c0.7-1.2,1.8-2.6,3.1-3.6c1.2-1,2.6-1.8,3.7-2.2c1.1-0.4,1.8-0.5,1.8-0.4
					s-0.6,0.4-1.5,1s-1.9,1.6-2.8,2.7c-0.9,1.1-1.5,2.4-1.9,3.5s-0.5,1.9-0.6,2.2c-0.1,0.6-0.4,1.3-0.6,1.9
					c-0.2,0.6-0.3,1.2-0.6,1.5c-0.3,0.2-1.1-0.2-1.5-1.2C125.5,91,125.5,89.8,125.7,89z"/>
			</g>
			<g>
				<path class="st0" d="M93.5,72c-0.1-0.2-0.5-0.8-0.6-1.7c-0.2-0.8-0.2-1.8-0.1-2.8c0.2-1.8,0.8-3.3,0.9-3.3
					c0.2,0,0.4,1.7,0.8,3.2c0.2,0.8,0.5,1.5,0.9,2c0.3,0.5,0.6,0.8,0.7,0.9c0.2,0.2,0.3,0.6,0.3,1c0.1,0.4,0.1,0.9-0.1,1.3
					C96.1,73,95.6,73.1,95,73C94.4,72.8,93.8,72.4,93.5,72z"/>
			</g>
			<g>
				<path class="st0" d="M86.2,67c0.2,0,0.8,0,1.6-0.1s1.7-0.3,2.6-0.7c0.9-0.4,1.7-0.9,2.3-1.3c0.6-0.4,0.9-0.8,1-0.8
					s-0.1,0.5-0.5,1.2s-1.1,1.6-1.9,2.3s-1.9,1.4-2.8,1.8c-0.9,0.4-1.7,0.6-2,0.6c-0.6,0.1-1.4-0.1-1.9-0.4
					c-0.6-0.3-0.9-0.8-0.9-1.2c0.1-0.4,0.5-0.7,1-1C85.3,67.2,85.8,67,86.2,67z"/>
			</g>
		</g>
		<g>
			<g>
				<path class="st0" d="M230.8,70c0.5-1.2,1.3-3.1,1.5-5.7c0.2-2.6-0.2-5.8-1.9-8.9c-0.8-1.5-2-3-3.5-4.2s-3.3-2.1-5.2-2.5
					s-4-0.4-5.9,0.1c-2,0.5-3.7,1.7-5,3.2s-2.2,3.3-2.4,5.2c-0.3,1.9,0.1,3.8,0.9,5.3c1.6,3.1,4.7,4.9,7.4,4.9
					c1.3,0,2.6-0.3,3.5-0.8s1.5-1.3,1.9-1.9c0.4-0.7,0.5-1.2,0.5-1.6s0-0.6,0-0.6c-0.1,0,0,0.9-0.8,2c-0.4,0.6-1,1.2-1.9,1.6
					c-0.9,0.4-1.9,0.6-3.1,0.5s-2.4-0.6-3.5-1.4c-1.1-0.8-2-1.9-2.6-3.3s-0.8-2.9-0.4-4.3c0.3-1.5,1.1-2.9,2.2-4s2.5-1.9,4-2.2
					s3.1-0.2,4.6,0.2c3,0.8,5.2,3,6.4,5.5c1.2,2.5,1.4,5,1.2,7c-0.2,2-0.9,3.5-1.3,4.4s-1.2,2.3-2.6,3.8s-3.5,3-6.2,4.1
					c-2.6,1.2-5.8,1.8-9.1,1.9c-3.3,0-6.7-0.6-9.9-1.7s-6.1-2.9-8.5-4.8c-2.4-2-4.4-4.1-6-6c-3.1-3.9-4.5-6.8-4.7-6.7
					c-0.1,0,0.1,0.9,0.6,2.2s1.5,3.2,2.9,5.4c1.4,2.1,3.3,4.5,5.8,6.8c2.5,2.2,5.5,4.3,8.9,5.7s7.2,2.3,10.9,2.4
					c3.7,0.1,7.3-0.5,10.4-1.8c3.1-1.2,5.7-2.9,7.5-4.8C229.2,73,230.2,71.2,230.8,70z"/>
			</g>
			<g>
				<path class="st0" d="M218,84.7c0.3,0.3,1.1,1,1.5,2.1c0.2,0.5,0.2,1.1,0.1,1.8c-0.2,0.7-0.6,1.3-1.1,1.8c-1.1,1.1-2.8,1.3-4,1.1
					s-2-0.8-2.1-0.7c0,0,0.5,0.8,1.8,1.5c0.6,0.3,1.5,0.6,2.5,0.6s2.1-0.2,3.1-0.8s1.9-1.5,2.4-2.6c0.6-1.1,0.7-2.4,0.6-3.5
					s-0.5-2-0.9-2.7s-0.8-1.2-1.1-1.5c-0.3-0.3-0.7-0.7-1.4-1.1c-0.7-0.4-1.5-0.8-2.4-1.1c-1.9-0.6-4-0.7-6-0.7
					c-1.9,0-3.7,0.1-5,0.1s-2.2-0.1-2.3,0.1c-0.1,0.2,0.6,0.8,2,1.3c1.3,0.5,3.2,0.8,5.1,1.1s3.7,0.7,4.9,1.3
					C217,83.7,217.7,84.4,218,84.7z"/>
			</g>
			<g>
				<path class="st0" d="M206,76.3c0.6-0.3,2.1-1.2,3.1-3c0.3-0.4,0.5-0.9,0.7-1.5s0.3-1.2,0.2-1.8c-0.1-1.2-0.6-2.4-1.3-3.3
					c-0.7-0.9-1.7-1.5-2.6-1.8s-1.8-0.3-2.5-0.2c-1.4,0.2-2.2,0.6-2.1,0.7c0,0.1,0.9,0,2.1,0.2c0.6,0.1,1.3,0.3,1.9,0.7
					s1.1,0.9,1.4,1.6c0.3,0.7,0.4,1.4,0.3,2s-0.4,1-0.8,1.5c-0.9,0.9-1.8,1.3-2.2,1.5c-0.4,0.2-1.3,0.7-2.7,0.9
					c-1.3,0.3-3,0.2-4.7-0.2s-3.3-1-4.5-1.4c-1.2-0.5-2.1-0.7-2.2-0.5s0.4,0.9,1.5,1.8c1,0.9,2.6,1.9,4.4,2.7
					c0.9,0.4,1.9,0.7,2.9,0.9s2,0.2,3,0.2C203.9,77.2,205.4,76.6,206,76.3z"/>
			</g>
			<g>
				<path class="st0" d="M189.1,63.4c0.5,0.2,1.5,0.4,2.8,0.5s2.8-0.1,4.2-0.5s2.6-0.9,3.4-1.5c0.8-0.5,1.3-1,1.2-1
					c0-0.1-0.6,0-1.6,0.2s-2.1,0.2-3.3,0.1c-1.2-0.1-2.5-0.3-3.4-0.7c-1-0.3-1.7-0.7-2-0.8s-1.1-0.3-2-0.8c-0.9-0.4-2-1-2.9-1.8
					c-1-0.7-1.8-1.5-2.5-2.2s-1.1-1.1-1.4-1c-0.2,0.1-0.2,0.8,0.1,1.7c0.3,1,0.9,2.2,1.8,3.3s2,2.2,3.1,2.9
					C187.6,62.8,188.6,63.2,189.1,63.4z"/>
			</g>
			<g>
				<path class="st0" d="M254.9,57.3c0.3,0.4,0.8,1,1.2,2c0.4,1,0.7,2.2,0.6,3.7c-0.1,1.4-0.6,3-1.7,4.2c-1,1.3-2.6,2.2-4.2,2.3
					c-1.7,0.2-3.4-0.4-4.5-1.5s-1.5-2.7-1.3-3.9c0.2-1.2,1-2.1,1.6-2.6s1.1-0.5,1.1-0.6c0,0-0.5-0.1-1.3,0.3
					c-0.8,0.3-1.8,1.2-2.3,2.7c-0.5,1.5-0.2,3.5,1,5.1c1.2,1.7,3.4,2.7,5.7,2.8c2.3,0.1,4.7-1,6.2-2.6c1.6-1.6,2.6-3.7,3-5.7
					c0.3-2,0.1-3.9-0.4-5.3c-0.5-1.5-1.2-2.5-1.7-3.2s-1.4-1.5-2.7-2.3c-1.3-0.8-3.1-1.5-5.1-1.7c-2.1-0.2-4.3,0.4-6.2,1.4
					s-3.7,2.3-5.1,3.8c-2.9,3-4.8,6.4-6.3,8.8c-1.5,2.4-2.3,4-2.1,4.2c0.2,0.2,1.5-1.2,3.3-3.3c1.8-2.1,4.1-5.2,7-7.7
					c1.4-1.2,3-2.3,4.6-2.9c1.6-0.7,3.2-0.9,4.6-0.7s2.6,0.7,3.4,1.3C254.1,56.3,254.6,56.9,254.9,57.3z"/>
			</g>
			<g>
				<path class="st0" d="M273.9,63.2c0.8-0.3,2.6-1.3,3.8-3.5c0.3-0.5,0.5-1.2,0.7-1.8c0.1-0.7,0.2-1.4,0.1-2
					c-0.2-1.4-0.8-2.7-1.7-3.6c-0.9-1-2.2-1.6-3.3-1.7c-1.1-0.1-2.2,0.2-2.9,0.5c-0.8,0.4-1.3,0.9-1.5,1.2s-0.4,0.6-0.3,0.7
					c0.1,0.1,0.8-0.7,2.2-1c0.7-0.1,1.5-0.2,2.3,0.1s1.5,0.8,1.9,1.5s0.6,1.6,0.6,2.4c-0.1,0.8-0.4,1.4-0.8,2
					c-0.9,1.1-2,1.5-2.5,1.7s-1.6,0.6-3.3,0.6c-1.6,0-3.7-0.3-5.6-1s-3.6-1.7-4.8-2.6c-1.2-0.8-2-1.5-2.2-1.3s0.2,1.1,1.2,2.4
					c1,1.3,2.7,2.8,4.7,3.9c2.1,1.2,4.4,1.9,6.6,2.1C271.2,64,273.1,63.5,273.9,63.2z"/>
			</g>
			<g>
				<path class="st0" d="M187.3,78.6c-0.3-0.4-1-1.2-1.8-2.4s-1.7-2.7-2.5-4.1c-1.6-2.9-2.7-5.9-2.9-5.8c-0.2,0,0,3.2,0.9,6.6
					c0.4,1.7,1,3.5,1.6,4.9c0.6,1.5,1.3,2.6,1.6,3.1c0.4,0.5,1.2,1.5,2.4,2.6c1.2,1.1,2.8,2.2,4.4,3s3.3,1.3,4.6,1.5
					c1.3,0.2,2.1,0.1,2.2-0.2s-0.6-0.7-1.7-1.3s-2.4-1.4-3.6-2.4c-1.3-1-2.5-2.1-3.4-3.2C188.2,79.9,187.6,79,187.3,78.6z"/>
			</g>
			<g>
				<path class="st0" d="M186.6,92.3c-0.3-0.2-0.9-0.9-1.5-1.9s-1.2-2.2-1.7-3.3c-1-2.3-1.8-4.5-1.7-4.6s1.6,1.7,3.1,3.7
					c0.8,1,1.5,1.9,2.2,2.5c0.7,0.7,1.2,1,1.4,1.2c0.4,0.3,0.8,0.8,1.1,1.2c0.4,0.5,0.7,0.9,0.7,1.3c-0.1,0.4-0.7,0.7-1.5,0.7
					C188,93.2,187.1,92.7,186.6,92.3z"/>
			</g>
			<g>
				<path class="st0" d="M193.6,56.6c-0.3,0.1-1.2,0.2-2.3,0.2c-1.1,0-2.4-0.2-3.5-0.5s-2.3-0.5-3.1-1c-0.8-0.5-1.1-1.1-1-1.1
					s0.5,0.3,1.3,0.4c0.8,0.1,1.8,0,3-0.1c1.1-0.1,2.3-0.2,3.1-0.4c0.9-0.2,1.4-0.5,1.6-0.5c0.4-0.1,1-0.2,1.6-0.2s1.1,0,1.4,0.3
					s0.1,0.9-0.3,1.5C195,55.9,194.2,56.4,193.6,56.6z"/>
			</g>
			<g>
				<path class="st0" d="M190.7,48.3c-0.2,0.1-0.7,0.5-1.4,0.7c-0.7,0.3-1.6,0.5-2.5,0.5c-1.8,0.2-3.2-0.4-3.2-0.6
					c0-0.1,1.5-0.4,2.7-1.1c1.3-0.7,2.1-1.8,2.4-2c0.2-0.2,0.6-0.3,1.1-0.4c0.4-0.1,0.9-0.1,1.2,0.2c0.3,0.2,0.5,0.7,0.4,1.3
					S191,48,190.7,48.3z"/>
			</g>
			<g>
				<path class="st0" d="M226.9,89.7c-0.1-0.3-0.2-1.2-0.6-2.2c-0.4-1.1-1-2.4-1.9-3.5c-0.9-1.2-1.9-2.1-2.8-2.7
					c-0.9-0.6-1.5-1-1.5-1c0-0.1,0.8,0,1.8,0.4s2.5,1.1,3.7,2.2c1.3,1,2.4,2.4,3.1,3.6c0.7,1.2,1,2.3,1.1,2.7c0.2,0.8,0.2,2-0.3,3
					c-0.4,1-1.2,1.4-1.5,1.2c-0.4-0.2-0.4-0.9-0.6-1.5C227.3,91,227,90.2,226.9,89.7z"/>
			</g>
			<g>
				<path class="st0" d="M259.5,70.3c0.1-0.1,0.4-0.4,0.7-0.9c0.3-0.5,0.6-1.2,0.9-2c0.5-1.5,0.6-3.2,0.8-3.2c0.1,0,0.7,1.5,0.9,3.3
					c0.1,0.9,0.1,1.9-0.1,2.8c-0.2,0.8-0.5,1.5-0.6,1.7c-0.3,0.4-0.9,0.9-1.5,1s-1.1,0-1.3-0.4c-0.2-0.4-0.1-0.8-0.1-1.3
					C259.3,70.9,259.4,70.5,259.5,70.3z"/>
			</g>
			<g>
				<path class="st0" d="M269,70c-0.3,0-1-0.2-2-0.6c-0.9-0.4-2-1-2.8-1.8c-0.9-0.8-1.5-1.6-1.9-2.3s-0.5-1.2-0.5-1.2
					c0.1,0,0.4,0.3,1,0.8s1.4,1,2.3,1.3c0.9,0.4,1.9,0.6,2.6,0.7s1.4,0.1,1.5,0.1c0.4,0,1,0.2,1.5,0.5c0.5,0.2,1,0.5,1,1
					c0.1,0.4-0.3,0.9-0.9,1.2C270.4,69.9,269.6,70,269,70z"/>
			</g>
		</g>
	</g>
	<path class="st0" d="M180.1,48.4c0.1,0.4,0.2,0.8,0.3,1.2c0.4,0.1,0.8,0.1,1.2,0.2c1.1,0.3,2.1,0.7,3.2,1.6c-1,1-2,1.5-3.1,1.8
		c-0.4,0.1-0.8,0.2-1.2,0.3c-0.1,0.4-0.1,0.8-0.2,1.2c-0.3,1.1-0.7,2.1-1.6,3.2c-1-1-1.5-2-1.8-3.1c-0.1-0.4-0.2-0.8-0.3-1.2
		c-0.4-0.1-0.8-0.1-1.2-0.2c-1.1-0.3-2.1-0.7-3.2-1.6c1-1,2-1.5,3.1-1.8c0.4-0.1,0.8-0.2,1.2-0.3c0.1-0.4,0.1-0.8,0.2-1.2
		c0.3-1.1,0.7-2.1,1.6-3.2C179.2,46.3,179.7,47.3,180.1,48.4z"/>
</g>
</svg>
