<?xml version="1.0" encoding="utf-8"?>
<!-- Generator: Adobe Illustrator 26.5.2, SVG Export Plug-In . SVG Version: 6.00 Build 0)  -->
<svg version="1.1" id="Lag_1" xmlns="http://www.w3.org/2000/svg" xmlns:xlink="http://www.w3.org/1999/xlink" x="0px" y="0px"
	 viewBox="0 0 148.2 167.5" style="enable-background:new 0 0 148.2 167.5;" xml:space="preserve">
<style type="text/css">
	.st0{fill:#E1BB19;}
</style>
<g>
	<g>
		<path class="st0" d="M68.1,27.6c0,5,3.5,45.2,4.3,45.2s4.3-40.2,4.3-45.2S74.8,14,72.4,14C70.1,14,68.1,22.5,68.1,27.6z"/>
	</g>
	<g>
		<path class="st0" d="M80.7,142c0-4.3-5.2-38.3-6.4-38.3s-6.4,34-6.4,38.3s2.9,11.5,6.4,11.5S80.7,146.2,80.7,142z"/>
	</g>
	<g>
		<g>
			<path class="st0" d="M47.9,49.8c0.7,0.5,2.8,1.8,5.3,4.2c2.5,2.3,5.2,5.6,7.5,9.2c2.3,3.6,4.2,7.5,5.7,10.3
				c1.5,2.9,2.4,4.7,2.6,4.7c0.2-0.1-0.1-2.2-0.7-5.3c-0.6-3.2-1.6-7.5-3.2-11.8c-1.6-4.3-3.8-8.7-6.3-12c-2.4-3.3-4.9-5.5-5.9-6.2
				c-1.9-1.4-5.3-2.8-8.4-2.6c-1.5,0.1-2.9,0.6-3.7,1.2c-0.8,0.6-1.1,1.3-1,1.9c0.2,0.6,0.7,1,1.3,1.4s1.4,0.9,2.1,1.5
				C44.8,47.3,46.5,48.7,47.9,49.8z"/>
		</g>
		<g>
			<path class="st0" d="M53.1,36.2c0.3,0.3,1.5,0.9,3,2.4c1.5,1.4,3.3,3.7,5,5.8c3.3,4.4,5.9,9.1,6.2,9c0.4-0.1,0-5.6-1.9-11.2
				c-0.9-2.8-2-5.6-3.3-8s-3-4.2-3.6-4.7c-1.4-1.1-3.8-1.9-5.7-1.7c-2,0.2-3.4,1.1-3.5,2.3s0.8,2.3,1.5,3.5
				C51.6,34.6,52.4,35.7,53.1,36.2z"/>
		</g>
		<g>
			<path class="st0" d="M46.8,123.5c0.8,0,3.1,0,6-0.7c1.5-0.4,3.1-1,4.6-1.8s3-1.8,4.3-3c2.6-2.3,4.3-5.1,5.2-7.3s1-3.7,0.8-3.8
				s-1,1.1-2.5,2.7c-1.5,1.6-3.7,3.2-6.2,4.3c-1.2,0.5-2.5,1-3.8,1.2c-1.2,0.2-2.4,0.3-3.4,0.3c-2.1,0-3.8-0.4-4.4-0.4
				c-1.2-0.1-3,0.2-4.7,0.7c-1.6,0.5-3,1.3-3.2,2.5s0.8,2.4,2.2,3.5C43.1,122.7,45.1,123.5,46.8,123.5z"/>
		</g>
		<g>
			<path class="st0" d="M56.4,134.9c0.9-0.3,3.3-1.3,5.8-3.3c1.2-1,2.5-2.3,3.6-3.8c1.1-1.5,2-3.1,2.7-4.7c1.4-3.3,1.9-6.6,2-9
				s-0.2-4-0.4-4s-0.7,1.5-1.6,3.5c-0.9,2.1-2.3,4.7-4.2,6.9c-0.9,1.1-2,2.1-3,2.9c-1,0.8-2.1,1.4-3.1,1.9c-2,0.9-3.6,1.2-4.1,1.3
				c-1.1,0.3-2.5,1.1-3.8,1.8c-1.3,0.8-2.7,1.5-3,2.7c-0.3,1.1,0.9,2.5,2.8,3.4C51.9,135.4,54.6,135.5,56.4,134.9z"/>
		</g>
		<g>
			<path class="st0" d="M17.1,83.4c0.3-1.6,1.1-4,2.8-6.7c0.8-1.3,1.9-2.7,3.1-4.1c1.3-1.4,2.9-2.6,4.6-3.7
				c3.5-2.2,7.7-3.6,12.1-3.9c4.4-0.4,8.9,0.4,12.9,2.1c4,1.7,7.3,4.2,9.8,7c2.5,2.7,4.3,5.7,5.5,8.2c1.2,2.6,1.8,4.8,2.1,6.4
				c0.3,1.6,0.3,2.5,0.2,2.5s-0.5-0.8-1.2-2.1c-0.7-1.4-1.7-3.3-3.3-5.4c-1.6-2.1-3.6-4.4-6.2-6.3c-2.5-2-5.7-3.5-8.9-4.3
				s-6.7-0.8-9.8,0c-3.1,0.7-5.8,2.1-7.8,3.7c-4,3.3-5,7.4-5.3,9.1c-0.3,1.3-0.8,3.9,0.1,6.8c0.4,1.4,1.3,3,2.5,4.3
				c1.3,1.4,3,2.5,4.8,3.1c1.9,0.6,3.8,0.6,5.8-0.1c2-0.7,3.8-2,5-3.7c0.6-0.8,1.1-1.7,1.4-2.6c0.3-0.9,0.5-1.9,0.5-2.8
				c0-1.8-0.7-3.4-1.7-4.2c-1.3-1.1-3.2-1.1-4.3-0.6c-1.2,0.5-1.7,1.2-2,1c-0.3-0.1-0.5-1.3,0.7-2.8c0.6-0.7,1.7-1.4,3-1.7
				c1.3-0.4,3.1-0.3,4.8,0.5c2.6,1.2,4.5,4,5.1,7c0.7,3.1,0.2,6.7-1.5,9.8s-4.3,5.7-7.6,7.4c-1.7,0.8-3.5,1.4-5.4,1.7
				s-3.9,0.2-5.7-0.2c-3.7-0.7-6.9-2.5-9.4-4.8c-2.5-2.2-4.4-5-5.5-7.8s-1.5-5.4-1.5-7.6C16.6,86.3,16.9,84.6,17.1,83.4z"/>
		</g>
	</g>
	<g>
		<g>
			<path class="st0" d="M100.3,49.8c-0.7,0.5-2.8,1.8-5.3,4.2c-2.5,2.3-5.2,5.6-7.5,9.2c-2.3,3.6-4.2,7.5-5.7,10.3
				c-1.5,2.9-2.4,4.7-2.6,4.7c-0.2-0.1,0.1-2.2,0.7-5.3c0.6-3.2,1.6-7.5,3.2-11.8c1.6-4.3,3.8-8.7,6.3-12c2.4-3.3,4.9-5.5,5.9-6.2
				c1.9-1.4,5.3-2.8,8.4-2.6c1.5,0.1,2.9,0.6,3.7,1.2c0.8,0.6,1.1,1.3,1,1.9c-0.2,0.6-0.7,1-1.3,1.4s-1.4,0.9-2.1,1.5
				C103.3,47.3,101.7,48.7,100.3,49.8z"/>
		</g>
		<g>
			<path class="st0" d="M95.1,36.2c-0.3,0.3-1.5,0.9-3,2.4c-1.5,1.4-3.3,3.7-5,5.8c-3.3,4.4-5.9,9.1-6.2,9c-0.4-0.1,0-5.6,1.9-11.2
				c0.9-2.8,2-5.6,3.3-8s3-4.2,3.6-4.7c1.4-1.1,3.8-1.9,5.7-1.7c2,0.2,3.4,1.1,3.5,2.3s-0.8,2.3-1.5,3.5
				C96.5,34.6,95.8,35.7,95.1,36.2z"/>
		</g>
		<g>
			<path class="st0" d="M101.4,123.5c-0.8,0-3.1,0-6-0.7c-1.5-0.4-3.1-1-4.6-1.8s-3-1.8-4.3-3c-2.6-2.3-4.3-5.1-5.2-7.3
				s-1-3.7-0.8-3.8s1,1.1,2.5,2.7s3.7,3.2,6.2,4.3c1.2,0.5,2.5,1,3.8,1.2c1.2,0.2,2.4,0.3,3.4,0.3c2.1,0,3.8-0.4,4.4-0.4
				c1.2-0.1,3,0.2,4.7,0.7c1.6,0.5,3,1.3,3.2,2.5s-0.8,2.4-2.2,3.5C105,122.7,103,123.5,101.4,123.5z"/>
		</g>
		<g>
			<path class="st0" d="M91.7,134.9c-0.9-0.3-3.3-1.3-5.8-3.3c-1.2-1-2.5-2.3-3.6-3.8c-1.1-1.5-2-3.1-2.7-4.7c-1.4-3.3-1.9-6.6-2-9
				s0.2-4,0.4-4s0.7,1.5,1.6,3.5c0.9,2.1,2.3,4.7,4.2,6.9c0.9,1.1,2,2.1,3,2.9c1,0.8,2.1,1.4,3.1,1.9c2,0.9,3.6,1.2,4.1,1.3
				c1.1,0.3,2.5,1.1,3.8,1.8c1.3,0.8,2.7,1.5,3,2.7c0.3,1.1-0.9,2.5-2.8,3.4C96.2,135.4,93.5,135.5,91.7,134.9z"/>
		</g>
		<g>
			<path class="st0" d="M131,83.4c-0.3-1.6-1.1-4-2.8-6.7c-0.8-1.3-1.9-2.7-3.2-4.1c-1.3-1.4-2.9-2.6-4.6-3.7
				c-3.5-2.2-7.7-3.6-12.1-3.9c-4.4-0.4-8.9,0.4-12.9,2.1c-4,1.7-7.3,4.2-9.8,7c-2.5,2.7-4.3,5.7-5.5,8.2c-1.2,2.6-1.8,4.8-2.1,6.4
				c-0.3,1.6-0.3,2.5-0.2,2.5s0.5-0.8,1.2-2.1c0.7-1.4,1.7-3.3,3.3-5.4c1.6-2.1,3.6-4.4,6.2-6.3c2.5-2,5.7-3.5,8.9-4.3
				s6.7-0.8,9.8,0c3.1,0.7,5.8,2.1,7.8,3.7c4,3.3,5,7.4,5.3,9.1c0.3,1.3,0.8,3.9-0.1,6.8c-0.4,1.4-1.3,3-2.5,4.3
				c-1.3,1.4-3,2.5-4.8,3.1c-1.9,0.6-3.8,0.6-5.8-0.1c-2-0.7-3.8-2-5-3.7c-0.6-0.8-1.1-1.7-1.4-2.6c-0.3-0.9-0.5-1.9-0.5-2.8
				c0-1.8,0.7-3.4,1.7-4.2c1.3-1.1,3.2-1.1,4.3-0.6c1.2,0.5,1.7,1.2,2,1c0.3-0.1,0.5-1.3-0.7-2.8c-0.6-0.7-1.7-1.4-3-1.7
				c-1.3-0.4-3.1-0.3-4.8,0.5c-2.6,1.2-4.5,4-5.1,7c-0.7,3.1-0.2,6.7,1.5,9.8s4.3,5.7,7.6,7.4c1.7,0.8,3.5,1.4,5.4,1.7
				s3.9,0.2,5.7-0.2c3.7-0.7,6.9-2.5,9.4-4.8c2.5-2.2,4.4-5,5.5-7.8s1.5-5.4,1.5-7.6C131.6,86.3,131.3,84.6,131,83.4z"/>
		</g>
	</g>
	<path class="st0" d="M83.1,97.1h-18c-1.2,0-2.2-1-2.2-2.2l0,0c0-1.2,1-2.2,2.2-2.2h18c1.2,0,2.2,1,2.2,2.2l0,0
		C85.4,96.1,84.4,97.1,83.1,97.1z"/>
	<path class="st0" d="M83.1,102.4h-18c-1.2,0-2.2-1-2.2-2.2l0,0c0-1.2,1-2.2,2.2-2.2h18c1.2,0,2.2,1,2.2,2.2l0,0
		C85.4,101.4,84.4,102.4,83.1,102.4z"/>
</g>
</svg>
