<?xml version="1.0" encoding="utf-8"?>
<!-- Generator: Adobe Illustrator 26.5.2, SVG Export Plug-In . SVG Version: 6.00 Build 0)  -->
<svg version="1.1" id="Lag_1" xmlns="http://www.w3.org/2000/svg" xmlns:xlink="http://www.w3.org/1999/xlink" x="0px" y="0px"
	 viewBox="0 0 215.3 228.2" style="enable-background:new 0 0 215.3 228.2;" xml:space="preserve">
<style type="text/css">
	.st0{fill:#E1BB19;}
</style>
<g>
	<g>
		<path class="st0" d="M85.5,199c-2.1,1-4.5,1.6-6.8,1.9c-2.3,0.3-4.7,0.4-7.1,0.3c-4.9-0.3-9.6-2.6-12.9-6.4
			c-1.6-1.9-2.9-4.2-3.5-6.7s-0.5-5.2,0.1-7.7c1.2-5,4.9-9.4,9.8-11.5c1.2-0.5,2.5-0.9,3.8-1.2c1.3-0.2,2.6-0.4,4-0.3
			c2.8,0.2,5.5,1.3,7.7,3.2c1.1,0.9,2,2,2.8,3.2s1.3,2.6,1.6,4c0.6,2.8,0.4,5.8-1.2,8.5c-0.8,1.3-2,2.5-3.3,3.3s-2.8,1.2-4.2,1.3
			c-0.7,0.1-1.4,0-2.1,0c-0.3,0-0.7-0.1-1-0.1s-0.8-0.1-1.1-0.2c-1.5-0.4-2.8-1.2-3.8-2.2s-1.8-2.3-2.2-3.7s-0.2-3,0.4-4.3
			c0.6-1.3,1.8-2.4,3.2-2.7s2.8,0.1,3.7,1l-0.3,0.4c-1-0.5-2.1-0.4-2.9,0c-0.8,0.4-1.4,1.2-1.6,2.1c-0.5,1.7,0.5,3.5,2,4.5
			c0.7,0.5,1.6,0.9,2.3,1c0.2,0,0.3,0,0.6,0s0.5,0,0.8,0c0.5,0,1-0.1,1.4-0.2c1.8-0.3,3.2-1.2,3.8-2.6c0.7-1.4,0.8-3.3,0.4-5
			c-0.4-1.8-1.3-3.2-2.7-4.5c-1.3-1.2-3.1-2.2-4.8-2.4c-0.9-0.1-1.9-0.1-2.9,0s-2,0.4-2.9,0.7c-3.8,1.4-6.9,4.6-8.2,8.6
			c-0.6,2-0.8,4.1-0.4,6.2c0.4,2,1.3,4,2.6,5.7c2.6,3.4,6.7,5.8,11.1,6.4c2.2,0.2,4.6,0.3,6.8,0.2c2.3-0.1,4.6-0.5,6.7-1.3L85.5,199
			z"/>
		<path class="st0" d="M44.9,171.6c-0.7,0.9-1.9,1.3-3,1.3s-2.2-0.6-3-1.4c-0.8-0.8-1.2-2-1.3-3.1c-0.1-1.2,0.2-2.3,0.7-3.3
			s1.2-1.9,2.1-2.6c0.8-0.7,2-1.3,3-1.5c2.1-0.5,4.5-0.7,6.7,0.3s3.7,3.1,4.4,5.3s0.7,4.6,0.2,6.8c-1.3,4.5-5,8.1-9.8,9
			c-4.5,0.9-9.3-0.2-13.1-3c-3.8-2.7-6.3-7.1-6.9-11.7c-0.7-4.6,0.4-9.5,3.3-13.4c1.4-1.9,3.2-3.6,5.2-4.8s4.3-2,6.6-2.5h-0.2
			c1.3-0.3,2.4-0.5,3.5-0.6c1.2-0.1,2.3-0.2,3.4-0.2c2.3,0,4.6,0.2,6.8,0.5c4.5,0.8,8.8,2.4,12.7,4.7s7.3,5.2,10.2,8.5
			s5.2,7,7.1,10.9l-0.4,0.3c-2.6-3.4-5.5-6.5-8.6-9.3s-6.5-5.1-10.2-6.8c-3.7-1.7-7.5-2.9-11.5-3.4c-2-0.3-4-0.3-6-0.3
			c-1,0-2,0.1-3,0.2c-0.9,0.1-2,0.3-2.8,0.4h-0.2l0,0c-3.6,0.6-6.9,2.3-9.2,5c-2.2,2.7-3.3,6.5-2.9,10.2c0.3,3.7,2.2,7.1,5.1,9.4
			c2.9,2.3,6.8,3.4,10.5,2.8c3.5-0.5,6.8-3.3,7.9-6.8c0.6-1.7,0.6-3.7,0.2-5.5c-0.5-1.8-1.5-3.4-3.1-4.2s-3.6-0.9-5.5-0.5
			c-1.9,0.3-3.5,1.6-4.4,3.2c-0.9,1.6-1,3.8,0.2,5.3c0.6,0.7,1.4,1.2,2.4,1.3c0.9,0.1,2-0.2,2.6-0.9L44.9,171.6z"/>
		<path class="st0" d="M51.9,148.4c-1.7,0.8-3.6,1.1-5.5,1s-3.8-0.5-5.6-1.6c-0.5-0.2-0.9-0.6-1.3-0.9c-0.2-0.2-0.4-0.4-0.6-0.6
			c-0.2-0.2-0.4-0.5-0.6-0.8c-0.7-1.1-1.1-2.2-1.1-3.3c-0.1-2.2,0.8-4.4,2.7-5.4c0.5,2,1,3.4,1.5,4.5c0.6,1.2,0.9,1.5,2.1,2.4
			c1,0.8,2.3,1.5,3.8,2.2C48.7,146.8,50.3,147.5,51.9,148.4z"/>
		<path class="st0" d="M65.4,154.7c-1.4,1-2.5,1.7-3.5,2.3l-2.9,1.9l-2.9,1.8c-0.5,0.3-1,0.6-1.5,1s-1.1,0.7-1.5,1.4
			c-0.1-0.1-0.3-0.3-0.4-0.5c-0.1-0.2-0.1-0.4-0.2-0.6c-0.1-0.4-0.1-0.9,0-1.3c0.1-0.9,0.4-1.6,0.8-2.4c0.8-1.4,1.9-2.6,3.2-3.4
			c1.3-0.8,2.9-1.3,4.5-1.4C62.4,153.2,64.1,153.6,65.4,154.7z"/>
		<path class="st0" d="M52.2,182.5c0.3,2,0.3,3.8,0.5,5.4c0.1,1.6,0.3,3.1,0.7,4.3c0.4,1.3,0.9,2.4,1.8,3.6c0.9,1.2,2.1,2.3,3.5,3.9
			c-2,0.4-4.1,0.2-6-0.9c-1.9-1.1-3.4-3-4-5.2s-0.5-4.4,0.2-6.3C49.6,185.5,50.7,183.8,52.2,182.5z"/>
		<path class="st0" d="M48.2,182.7c0.3,0.8,0.2,1.6,0.1,2.4c-0.2,0.8-0.5,1.5-0.9,2.2c-0.8,1.3-2.1,2.4-3.6,3.1
			c-1.5,0.7-3.2,0.9-4.8,0.5s-3-1.4-3.8-2.8c1.6-0.4,2.8-0.7,3.8-1s1.9-0.7,2.8-1.1c0.9-0.4,1.8-0.8,2.9-1.3
			C45.7,184,46.9,183.5,48.2,182.7z"/>
		<path class="st0" d="M46.5,190.3c0.4,1.2,0.6,2.1,0.7,2.9c0.1,0.8,0.1,1.4,0,2s-0.3,1.2-0.6,1.9s-0.7,1.4-1.5,2.5
			c-1.2-0.5-2-1.3-2.4-2.2s-0.6-2-0.4-3c0.2-1,0.6-1.9,1.2-2.7C44.3,191.1,45.2,190.4,46.5,190.3z"/>
	</g>
	<rect x="72.3" y="193.6" class="st0" width="130.1" height="3.6"/>
	<rect x="80.8" y="187" class="st0" width="96.4" height="1.6"/>
	<rect x="26" y="28.5" class="st0" width="3.6" height="130.1"/>
	<rect x="34.5" y="53.7" class="st0" width="1.6" height="96.4"/>
</g>
</svg>
